<svg width="800" height="800" viewBox="0 0 32 32" xmlns="http://www.w3.org/2000/svg"><path d="m26.148 8.052 3.897.314c.269-.339.688-2.047.269-2.465l-4.117-4.117c-.419-.419-2.125 0-2.465.268l.313 3.897 2.103 2.103zm4.253 18.46.139.145c-3.039-3.177-1.312-9.067-6.05-15.28l1.458-1.947-3.28-3.28-1.947 1.458C14.752 3.056 9.081 4.47 5.828 1.894l-.001-.014-.246-.194a5.54 5.54 0 0 1-.139-.128l.137.131v.013L7.273 21.23.785 28.49l2.824 2.824 7.065-6.313 19.729 1.51zm-.236-.262-19.209-1.502 10.647-9.514 1.078-1.439c4.585 5.459 4.834 9.42 7.485 12.456zM5.829 1.917c3.038 2.666 7.005 2.907 12.475 7.501l-1.44 1.078-9.368 10.483L5.829 1.917zm1.582 21.98L20.54 10.768l1.975-1.185-1.185 1.975L8.201 24.687l-.79-.79z"/></svg>